#!OML:ASF E:\Mandelcareful walks\Project 1\Capture day 1\Session 1\Subject1.ASF
:FULLY-SPECIFIED
:DEGREES
1710
root 10.9097 16.555 -0.0805153 611.141 -89.319 473.648
lowerback 25.7654 1.51492 -5.30836
upperback 8.36923 -0.0534506 0.167802
thorax -5.00846 -0.35868 3.2684
lowerneck -25.4185 1.03303 -3.54309
upperneck 24.492 2.89148 -0.506852
head 12.279 0.812454 0.89299
rclavicle -3.97569e-016 1.37161e-014
rhumerus -27.846 -2.28695 -80.5933
rradius 46.259
rwrist -20.9208
rhand -15.6371 -25.6518
rfingers 7.12502
rthumb 10.5502 -55.367
lclavicle -3.97569e-016 1.37161e-014
lhumerus -24.5448 -12.2405 84.5299
lradius 49.2292
lwrist 25.497
lhand -26.5455 -12.5029
lfingers 7.12502
lthumb 0.0188715 17.4768
rfemur -36.2206 -5.53637 11.5399
rtibia 27.4697
rfoot 3.37374 -5.20432
rtoes -14.5515
lfemur -14.517 4.61082 -23.7287
ltibia 37.2043
lfoot -26.554 6.78125
ltoes 13.2528
1711
root 10.7891 16.5396 -0.0964588 644.376 -89.0124 440.332
lowerback 25.9153 1.41322 -5.26147
upperback 8.38701 -0.184925 0.12671
thorax -5.05054 -0.421135 3.23631
lowerneck -25.2027 0.734769 -3.73462
upperneck 24.332 2.48154 -0.332906
head 12.1766 0.643301 0.916037
rclavicle -1.39149e-014 -3.33958e-014
rhumerus -28.1466 -2.09855 -80.613
rradius 46.599
rwrist -20.9999
rhand -15.7008 -25.9575
rfingers 7.12502
rthumb 10.4887 -55.6758
lclavicle -1.39149e-014 -3.33958e-014
lhumerus -24.7404 -12.3721 84.6607
lradius 49.5837
lwrist 25.7438
lhand -26.6395 -12.4417
lfingers 7.12502
lthumb -0.0718724 17.538
rfemur -36.6562 -4.96102 10.8438
rtibia 25.9878
rfoot 5.46935 -6.0389
rtoes -14.0241
lfemur -13.8687 4.4603 -23.9848
ltibia 37.04
lfoot -26.7329 6.46931
ltoes 12.9542
1712
root 10.6621 16.5175 -0.11782 659.358 -88.5991 425.249
lowerback 25.8404 1.34408 -5.22757
upperback 8.5981 -0.270193 0.125875
thorax -4.77311 -0.480361 3.2379
lowerneck -25.3448 0.475277 -3.87521
upperneck 24.2843 2.15962 -0.258282
head 12.1893 0.499723 0.912527
rclavicle -1.39149e-014 0
rhumerus -28.0406 -2.03714 -80.6434
rradius 46.5717
rwrist -20.8549
rhand -15.8217 -26.0301
rfingers 7.12502
rthumb 10.3721 -55.7543
lclavicle -1.39149e-014 0
lhumerus -24.673 -12.3133 84.7148
lradius 50.071
lwrist 25.8955
lhand -26.7571 -12.4724
lfingers 7.12502
lthumb -0.185489 17.5072
rfemur -37.0838 -4.82034 10.4605
rtibia 24.967
rfoot 7.12216 -6.96298
rtoes -14.2415
lfemur -13.229 4.36286 -24.1538
ltibia 37.0244
lfoot -26.8851 6.10039
ltoes 12.9046
1713
root 10.54 16.4848 -0.14917 671.983 -88.0538 412.654
lowerback 25.8605 1.22031 -5.11008
upperback 8.66781 -0.399408 0.140267
thorax -4.69549 -0.546068 3.2231
lowerneck -25.2824 0.225173 -4.12513
upperneck 24.1685 1.84444 -0.0595809
head 12.1338 0.368371 0.973209
rclavicle -4.96962e-016 -1.27222e-014
rhumerus -28.1941 -2.08453 -80.6521
rradius 46.6998
rwrist -20.6215
rhand -15.8531 -25.8625
rfingers 7.12502
rthumb 10.3419 -55.5882
lclavicle -4.96962e-016 -1.27222e-014
lhumerus -24.7194 -12.4362 84.8471
lradius 50.4914
lwrist 25.97
lhand -27.0428 -12.31
lfingers 7.12502
lthumb -0.461419 17.6692
rfemur -37.4639 -4.6723 10.0787
rtibia 24.3503
rfoot 8.60658 -8.22212
rtoes -13.9724
lfemur -12.847 4.13851 -24.2491
ltibia 37.1612
lfoot -26.9871 5.7399
ltoes 13.0681
1714
root 10.4249 16.4507 -0.184506 678.157 -87.4803 406.559
lowerback 26.0859 1.12674 -4.93766
upperback 8.59953 -0.482881 0.151896
thorax -4.87554 -0.575518 3.16522
lowerneck -25.0151 -0.0542524 -4.48085
upperneck 24.0079 1.49312 0.213755
head 12.0228 0.222213 1.07191
rclavicle 3.67752e-015 -7.35503e-015
rhumerus -28.4611 -2.2213 -80.6239
rradius 46.7753
rwrist -20.5089
rhand -15.7285 -25.8569
rfingers 7.12502
rthumb 10.4621 -55.5766
lclavicle 3.67752e-015 -7.35503e-015
lhumerus -24.8218 -12.5928 85.0713
lradius 50.6261
lwrist 25.9256
lhand -26.6544 -11.7724
lfingers 7.12502
lthumb -0.0863115 18.2073
rfemur -37.8042 -4.49028 9.68803
rtibia 24.0838
rfoot 9.78822 -9.67525
rtoes -13.8824
lfemur -12.6522 3.94724 -24.3415
ltibia 37.4079
lfoot -27.1327 5.54913
ltoes 12.6139
